# xmcd
#
# Track frame offsets: 
#        187
#        11892
#        24090
#        36857
#        50510
#        60560
#        70055
#        83577
#        100475
#        116125
#        129022
#        140067
#        153040
#        163992
#        173805
#        185507
#        197685
#        209637
#        222255
#        234475
#        245367
#
# Disc length: 3451 seconds
#
# Revision: 3
# Processed by: cddbd v1.5.2PL0 Copyright (c) Steve Scherf et al.
# Submitted via: ExactAudioCopy v1.0b3
#
DISCID=250d7915
DTITLE=Patsy Cline - Commemorative Collection [CD 1) - Greatest Hits -
DTITLE=Last Sessions
DYEAR=1988
DGENRE=Country
TTITLE0=Walkin' After Midnight
TTITLE1=Crazy
TTITLE2=I Fall To Pieces
TTITLE3=So Wrong
TTITLE4=Strange
TTITLE5=Back In Baby's Arms
TTITLE6=She's Got You
TTITLE7=Faded Love
TTITLE8=Why Can't He Be You
TTITLE9=You're Stronger Than Me
TTITLE10=Leavin' On Your Mind
TTITLE11=Someday (You'll Want Me To Want You)
TTITLE12=Love Letters In The Sand
TTITLE13=Blue Moon Of Kentucky
TTITLE14=Sweet Dreams (Of You)
TTITLE15=Always
TTITLE16=Does Your Heart Beat For Me
TTITLE17=Bill Bailey, Won't You Please Come Home
TTITLE18=He Called Me Baby
TTITLE19=Crazy Arms
TTITLE20=You Took Him Off My Hands
EXTD=
EXTT0=
EXTT1=
EXTT2=
EXTT3=
EXTT4=
EXTT5=
EXTT6=
EXTT7=
EXTT8=
EXTT9=
EXTT10=
EXTT11=
EXTT12=
EXTT13=
EXTT14=
EXTT15=
EXTT16=
EXTT17=
EXTT18=
EXTT19=
EXTT20=
PLAYORDER=
